<svg xmlns="http://www.w3.org/2000/svg" height="48" viewBox="0 96 960 960" width="48" fill="#16151a"><path d="M480.761 630.109 275.913 834.957q-12.478 12.478-27.935 12.478-15.456 0-26.935-12.478-12.478-11.479-12.478-26.935 0-15.457 12.478-26.935l205.609-205.848L220.283 369.63q-11.479-11.478-11.479-27.054 0-15.576 11.479-27.054 11.239-11.479 26.815-11.479t28.054 11.479L480 520.609l205.087-205.326q11.478-11.479 26.935-11.479 15.456 0 27.935 11.479 11.478 12.478 11.478 28.315 0 15.837-11.478 27.315L534.87 575.761l204.847 205.848q11.718 11.717 11.718 27.174 0 15.456-11.718 26.934-11.478 11.718-27.054 11.718-15.576 0-26.054-11.718L480.761 630.109Z"/></svg>