<svg xmlns="http://www.w3.org/2000/svg" height="48" fill="#36343a" viewBox="0 96 960 960" width="48"><path d="M151.5 916.5q-38.05 0-64.775-26.725Q60 863.05 60 825V327q0-38.463 26.725-65.481Q113.45 234.5 151.5 234.5h657q38.463 0 65.481 27.019Q901 288.537 901 327v498q0 38.05-27.019 64.775Q846.963 916.5 808.5 916.5h-657Zm328.5-302q6.5 0 12.5-2t13.139-6.05L795 412q4.5-2.5 9-9.25t4.5-16.015q0-16.368-16-27.551-16-11.184-32 .816L480 543.5 201 360q-16.5-10-33-1.75t-16.5 27.591q0 8.864 5 15.511 5 6.648 9.689 10.713l288.693 194.386Q461.5 610.5 467.5 612.5t12.5 2Z"/></svg>